<svg width="319" height="501" viewBox="0 0 319 501" fill="none" xmlns="http://www.w3.org/2000/svg">
<rect width="319" height="94" transform="translate(0 407)" fill="#2E2E31"/>
<path d="M115.631 465.337L111.395 477H109.663L114.541 464.203H115.657L115.631 465.337ZM119.182 477L114.937 465.337L114.91 464.203H116.026L120.922 477H119.182ZM118.962 472.263V473.651H111.773V472.263H118.962ZM124.376 469.318V480.656H122.741V467.49H124.235L124.376 469.318ZM130.783 472.166V472.351C130.783 473.042 130.701 473.684 130.537 474.275C130.373 474.861 130.133 475.371 129.816 475.805C129.506 476.238 129.122 476.575 128.665 476.815C128.208 477.056 127.683 477.176 127.092 477.176C126.488 477.176 125.955 477.076 125.492 476.877C125.029 476.678 124.636 476.388 124.314 476.007C123.992 475.626 123.734 475.169 123.541 474.636C123.353 474.103 123.224 473.502 123.154 472.834V471.85C123.224 471.146 123.356 470.517 123.55 469.96C123.743 469.403 123.998 468.929 124.314 468.536C124.636 468.138 125.026 467.836 125.483 467.631C125.94 467.42 126.468 467.314 127.065 467.314C127.663 467.314 128.193 467.432 128.656 467.666C129.119 467.895 129.509 468.223 129.825 468.65C130.141 469.078 130.379 469.591 130.537 470.188C130.701 470.78 130.783 471.439 130.783 472.166ZM129.148 472.351V472.166C129.148 471.691 129.098 471.246 128.999 470.83C128.899 470.408 128.744 470.039 128.533 469.723C128.328 469.4 128.064 469.148 127.742 468.967C127.42 468.779 127.036 468.686 126.591 468.686C126.18 468.686 125.823 468.756 125.518 468.896C125.219 469.037 124.965 469.228 124.754 469.468C124.543 469.702 124.37 469.972 124.235 470.276C124.106 470.575 124.01 470.886 123.945 471.208V473.484C124.062 473.895 124.226 474.281 124.437 474.645C124.648 475.002 124.929 475.292 125.281 475.515C125.633 475.731 126.075 475.84 126.608 475.84C127.048 475.84 127.426 475.749 127.742 475.567C128.064 475.38 128.328 475.125 128.533 474.803C128.744 474.48 128.899 474.111 128.999 473.695C129.098 473.273 129.148 472.825 129.148 472.351ZM134.175 467.49L136.258 470.953L138.368 467.49H140.275L137.163 472.184L140.371 477H138.491L136.293 473.432L134.096 477H132.206L135.406 472.184L132.303 467.49H134.175ZM144.124 474.425L148.51 467.49H150.145V477H148.51V470.065L144.124 477H142.507V467.49H144.124V474.425ZM156.991 467.49V477H155.356V467.49H156.991ZM160.181 467.49V468.809H152.227V467.49H160.181ZM165.384 477.176C164.722 477.176 164.121 477.064 163.582 476.842C163.049 476.613 162.589 476.294 162.202 475.884C161.822 475.474 161.529 474.987 161.324 474.425C161.118 473.862 161.016 473.247 161.016 472.579V472.21C161.016 471.437 161.13 470.748 161.359 470.145C161.587 469.535 161.898 469.02 162.29 468.598C162.683 468.176 163.128 467.856 163.626 467.64C164.124 467.423 164.64 467.314 165.173 467.314C165.853 467.314 166.439 467.432 166.931 467.666C167.429 467.9 167.836 468.229 168.153 468.65C168.469 469.066 168.703 469.559 168.856 470.127C169.008 470.689 169.084 471.305 169.084 471.973V472.702H161.983V471.375H167.458V471.252C167.435 470.83 167.347 470.42 167.195 470.021C167.048 469.623 166.814 469.295 166.492 469.037C166.169 468.779 165.73 468.65 165.173 468.65C164.804 468.65 164.464 468.729 164.154 468.888C163.843 469.04 163.576 469.269 163.354 469.573C163.131 469.878 162.958 470.25 162.835 470.689C162.712 471.129 162.651 471.636 162.651 472.21V472.579C162.651 473.03 162.712 473.455 162.835 473.854C162.964 474.246 163.149 474.592 163.389 474.891C163.635 475.189 163.931 475.424 164.277 475.594C164.628 475.764 165.027 475.849 165.472 475.849C166.046 475.849 166.533 475.731 166.931 475.497C167.329 475.263 167.678 474.949 167.977 474.557L168.961 475.339C168.756 475.649 168.495 475.945 168.179 476.227C167.863 476.508 167.473 476.736 167.01 476.912C166.553 477.088 166.011 477.176 165.384 477.176ZM173.109 467.49V477H171.483V467.49H173.109ZM179.35 467.49L174.841 472.939H172.564L172.318 471.516H174.182L177.372 467.49H179.35ZM177.601 477L174.103 472.693L175.148 471.516L179.666 477H177.601ZM185.317 467.49V477H183.682V467.49H185.317ZM188.507 467.49V468.809H180.553V467.49H188.507ZM189.667 472.351V472.148C189.667 471.463 189.767 470.827 189.966 470.241C190.165 469.649 190.452 469.137 190.827 468.703C191.202 468.264 191.656 467.924 192.19 467.684C192.723 467.438 193.321 467.314 193.983 467.314C194.651 467.314 195.251 467.438 195.784 467.684C196.323 467.924 196.781 468.264 197.156 468.703C197.536 469.137 197.826 469.649 198.026 470.241C198.225 470.827 198.324 471.463 198.324 472.148V472.351C198.324 473.036 198.225 473.672 198.026 474.258C197.826 474.844 197.536 475.356 197.156 475.796C196.781 476.229 196.326 476.569 195.793 476.815C195.266 477.056 194.668 477.176 194 477.176C193.332 477.176 192.732 477.056 192.198 476.815C191.665 476.569 191.208 476.229 190.827 475.796C190.452 475.356 190.165 474.844 189.966 474.258C189.767 473.672 189.667 473.036 189.667 472.351ZM191.293 472.148V472.351C191.293 472.825 191.349 473.273 191.46 473.695C191.572 474.111 191.739 474.48 191.961 474.803C192.19 475.125 192.474 475.38 192.814 475.567C193.154 475.749 193.549 475.84 194 475.84C194.446 475.84 194.835 475.749 195.169 475.567C195.509 475.38 195.79 475.125 196.013 474.803C196.236 474.48 196.403 474.111 196.514 473.695C196.631 473.273 196.69 472.825 196.69 472.351V472.148C196.69 471.68 196.631 471.237 196.514 470.821C196.403 470.399 196.233 470.027 196.004 469.705C195.781 469.377 195.5 469.119 195.16 468.932C194.826 468.744 194.434 468.65 193.983 468.65C193.537 468.65 193.145 468.744 192.805 468.932C192.471 469.119 192.19 469.377 191.961 469.705C191.739 470.027 191.572 470.399 191.46 470.821C191.349 471.237 191.293 471.68 191.293 472.148ZM202.349 469.318V480.656H200.715V467.49H202.209L202.349 469.318ZM208.757 472.166V472.351C208.757 473.042 208.675 473.684 208.511 474.275C208.347 474.861 208.106 475.371 207.79 475.805C207.479 476.238 207.096 476.575 206.639 476.815C206.182 477.056 205.657 477.176 205.065 477.176C204.462 477.176 203.929 477.076 203.466 476.877C203.003 476.678 202.61 476.388 202.288 476.007C201.966 475.626 201.708 475.169 201.515 474.636C201.327 474.103 201.198 473.502 201.128 472.834V471.85C201.198 471.146 201.33 470.517 201.523 469.96C201.717 469.403 201.972 468.929 202.288 468.536C202.61 468.138 203 467.836 203.457 467.631C203.914 467.42 204.441 467.314 205.039 467.314C205.637 467.314 206.167 467.432 206.63 467.666C207.093 467.895 207.482 468.223 207.799 468.65C208.115 469.078 208.352 469.591 208.511 470.188C208.675 470.78 208.757 471.439 208.757 472.166ZM207.122 472.351V472.166C207.122 471.691 207.072 471.246 206.973 470.83C206.873 470.408 206.718 470.039 206.507 469.723C206.302 469.4 206.038 469.148 205.716 468.967C205.393 468.779 205.01 468.686 204.564 468.686C204.154 468.686 203.797 468.756 203.492 468.896C203.193 469.037 202.938 469.228 202.727 469.468C202.516 469.702 202.344 469.972 202.209 470.276C202.08 470.575 201.983 470.886 201.919 471.208V473.484C202.036 473.895 202.2 474.281 202.411 474.645C202.622 475.002 202.903 475.292 203.255 475.515C203.606 475.731 204.049 475.84 204.582 475.84C205.021 475.84 205.399 475.749 205.716 475.567C206.038 475.38 206.302 475.125 206.507 474.803C206.718 474.48 206.873 474.111 206.973 473.695C207.072 473.273 207.122 472.825 207.122 472.351Z" fill="#EFEFEF"/>
<path d="M62.5317 448C62.3704 448 62.2457 447.956 62.1577 447.868C62.0697 447.765 62.0257 447.641 62.0257 447.494V433.128C62.0257 432.967 62.0697 432.842 62.1577 432.754C62.2457 432.651 62.3704 432.6 62.5317 432.6H71.6177C71.7791 432.6 71.9037 432.651 71.9917 432.754C72.0797 432.842 72.1237 432.967 72.1237 433.128V433.964C72.1237 434.125 72.0797 434.25 71.9917 434.338C71.9037 434.426 71.7791 434.47 71.6177 434.47H64.1377V439.288H71.1337C71.2951 439.288 71.4197 439.339 71.5077 439.442C71.5957 439.53 71.6397 439.655 71.6397 439.816V440.63C71.6397 440.777 71.5957 440.901 71.5077 441.004C71.4197 441.092 71.2951 441.136 71.1337 441.136H64.1377V446.13H71.7937C71.9551 446.13 72.0797 446.174 72.1677 446.262C72.2557 446.35 72.2997 446.475 72.2997 446.636V447.494C72.2997 447.641 72.2557 447.765 72.1677 447.868C72.0797 447.956 71.9551 448 71.7937 448H62.5317ZM75.8075 448C75.6608 448 75.5362 447.956 75.4335 447.868C75.3455 447.765 75.3015 447.641 75.3015 447.494V437.066C75.3015 436.919 75.3455 436.802 75.4335 436.714C75.5362 436.611 75.6608 436.56 75.8075 436.56H82.3855C82.5322 436.56 82.6495 436.611 82.7375 436.714C82.8255 436.802 82.8695 436.919 82.8695 437.066V437.814C82.8695 437.961 82.8255 438.085 82.7375 438.188C82.6495 438.276 82.5322 438.32 82.3855 438.32H77.3475V447.494C77.3475 447.641 77.3035 447.765 77.2155 447.868C77.1275 447.956 77.0102 448 76.8635 448H75.8075ZM89.6606 448.22C88.546 448.22 87.6146 448.007 86.8666 447.582C86.1186 447.157 85.5466 446.57 85.1506 445.822C84.7546 445.059 84.5346 444.194 84.4906 443.226C84.476 442.977 84.4686 442.661 84.4686 442.28C84.4686 441.884 84.476 441.569 84.4906 441.334C84.5346 440.351 84.7546 439.486 85.1506 438.738C85.5613 437.99 86.1406 437.403 86.8886 436.978C87.6366 436.553 88.5606 436.34 89.6606 436.34C90.7606 436.34 91.6846 436.553 92.4326 436.978C93.1806 437.403 93.7526 437.99 94.1486 438.738C94.5593 439.486 94.7866 440.351 94.8306 441.334C94.8453 441.569 94.8526 441.884 94.8526 442.28C94.8526 442.661 94.8453 442.977 94.8306 443.226C94.7866 444.194 94.5666 445.059 94.1706 445.822C93.7746 446.57 93.2026 447.157 92.4546 447.582C91.7066 448.007 90.7753 448.22 89.6606 448.22ZM89.6606 446.526C90.57 446.526 91.296 446.24 91.8386 445.668C92.3813 445.081 92.6746 444.231 92.7186 443.116C92.7333 442.896 92.7406 442.617 92.7406 442.28C92.7406 441.943 92.7333 441.664 92.7186 441.444C92.6746 440.329 92.3813 439.486 91.8386 438.914C91.296 438.327 90.57 438.034 89.6606 438.034C88.7513 438.034 88.018 438.327 87.4606 438.914C86.918 439.486 86.632 440.329 86.6026 441.444C86.588 441.664 86.5806 441.943 86.5806 442.28C86.5806 442.617 86.588 442.896 86.6026 443.116C86.632 444.231 86.918 445.081 87.4606 445.668C88.018 446.24 88.7513 446.526 89.6606 446.526ZM98.3555 452.18C98.2088 452.18 98.0841 452.129 97.9815 452.026C97.8935 451.938 97.8495 451.821 97.8495 451.674V437.066C97.8495 436.919 97.8935 436.802 97.9815 436.714C98.0841 436.611 98.2088 436.56 98.3555 436.56H99.3675C99.5141 436.56 99.6315 436.611 99.7195 436.714C99.8221 436.802 99.8735 436.919 99.8735 437.066V438.034C100.225 437.55 100.695 437.147 101.281 436.824C101.868 436.501 102.601 436.34 103.481 436.34C104.303 436.34 104.999 436.479 105.571 436.758C106.158 437.037 106.635 437.418 107.001 437.902C107.383 438.386 107.669 438.936 107.859 439.552C108.05 440.168 108.153 440.828 108.167 441.532C108.182 441.767 108.189 442.016 108.189 442.28C108.189 442.544 108.182 442.793 108.167 443.028C108.153 443.717 108.05 444.377 107.859 445.008C107.669 445.624 107.383 446.174 107.001 446.658C106.635 447.127 106.158 447.509 105.571 447.802C104.999 448.081 104.303 448.22 103.481 448.22C102.631 448.22 101.912 448.066 101.325 447.758C100.753 447.435 100.284 447.039 99.9175 446.57V451.674C99.9175 451.821 99.8735 451.938 99.7855 452.026C99.6975 452.129 99.5728 452.18 99.4115 452.18H98.3555ZM103.019 446.438C103.782 446.438 104.376 446.277 104.801 445.954C105.241 445.617 105.557 445.184 105.747 444.656C105.938 444.113 106.048 443.534 106.077 442.918C106.092 442.493 106.092 442.067 106.077 441.642C106.048 441.026 105.938 440.454 105.747 439.926C105.557 439.383 105.241 438.951 104.801 438.628C104.376 438.291 103.782 438.122 103.019 438.122C102.301 438.122 101.714 438.291 101.259 438.628C100.819 438.965 100.489 439.398 100.269 439.926C100.064 440.439 99.9468 440.967 99.9175 441.51C99.9028 441.745 99.8955 442.023 99.8955 442.346C99.8955 442.669 99.9028 442.955 99.9175 443.204C99.9321 443.717 100.049 444.223 100.269 444.722C100.504 445.221 100.849 445.631 101.303 445.954C101.758 446.277 102.33 446.438 103.019 446.438ZM115.839 448.22C114.724 448.22 113.793 448.007 113.045 447.582C112.297 447.157 111.725 446.57 111.329 445.822C110.933 445.059 110.713 444.194 110.669 443.226C110.654 442.977 110.647 442.661 110.647 442.28C110.647 441.884 110.654 441.569 110.669 441.334C110.713 440.351 110.933 439.486 111.329 438.738C111.74 437.99 112.319 437.403 113.067 436.978C113.815 436.553 114.739 436.34 115.839 436.34C116.939 436.34 117.863 436.553 118.611 436.978C119.359 437.403 119.931 437.99 120.327 438.738C120.738 439.486 120.965 440.351 121.009 441.334C121.024 441.569 121.031 441.884 121.031 442.28C121.031 442.661 121.024 442.977 121.009 443.226C120.965 444.194 120.745 445.059 120.349 445.822C119.953 446.57 119.381 447.157 118.633 447.582C117.885 448.007 116.954 448.22 115.839 448.22ZM115.839 446.526C116.748 446.526 117.474 446.24 118.017 445.668C118.56 445.081 118.853 444.231 118.897 443.116C118.912 442.896 118.919 442.617 118.919 442.28C118.919 441.943 118.912 441.664 118.897 441.444C118.853 440.329 118.56 439.486 118.017 438.914C117.474 438.327 116.748 438.034 115.839 438.034C114.93 438.034 114.196 438.327 113.639 438.914C113.096 439.486 112.81 440.329 112.781 441.444C112.766 441.664 112.759 441.943 112.759 442.28C112.759 442.617 112.766 442.896 112.781 443.116C112.81 444.231 113.096 445.081 113.639 445.668C114.196 446.24 114.93 446.526 115.839 446.526ZM124.512 448C124.365 448 124.24 447.956 124.138 447.868C124.05 447.765 124.006 447.641 124.006 447.494V437.066C124.006 436.919 124.05 436.802 124.138 436.714C124.24 436.611 124.365 436.56 124.512 436.56H129.088C130.466 436.56 131.5 436.839 132.19 437.396C132.894 437.953 133.246 438.701 133.246 439.64C133.246 440.3 133.121 440.799 132.872 441.136C132.622 441.473 132.27 441.759 131.816 441.994C132.373 442.229 132.791 442.61 133.07 443.138C133.363 443.651 133.51 444.187 133.51 444.744C133.51 445.8 133.136 446.607 132.388 447.164C131.64 447.721 130.598 448 129.264 448H124.512ZM126.03 446.394H129.088C129.792 446.394 130.356 446.262 130.782 445.998C131.222 445.719 131.442 445.301 131.442 444.744C131.442 444.157 131.244 443.732 130.848 443.468C130.452 443.189 129.865 443.05 129.088 443.05H126.03V446.394ZM126.03 441.422H128.956C129.66 441.422 130.217 441.268 130.628 440.96C131.053 440.652 131.266 440.219 131.266 439.662C131.266 439.09 131.053 438.701 130.628 438.496C130.217 438.276 129.66 438.166 128.956 438.166H126.03V441.422ZM141.422 448C141.305 448 141.202 447.956 141.114 447.868C141.026 447.78 140.982 447.677 140.982 447.56C140.982 447.487 140.99 447.406 141.004 447.318L146.46 433.084C146.519 432.937 146.6 432.82 146.702 432.732C146.805 432.644 146.959 432.6 147.164 432.6H148.66C148.851 432.6 148.998 432.644 149.1 432.732C149.218 432.82 149.306 432.937 149.364 433.084L154.798 447.318C154.828 447.406 154.842 447.487 154.842 447.56C154.842 447.677 154.798 447.78 154.71 447.868C154.622 447.956 154.52 448 154.402 448H153.28C153.104 448 152.972 447.956 152.884 447.868C152.811 447.78 152.76 447.699 152.73 447.626L151.52 444.502H144.304L143.094 447.626C143.08 447.699 143.028 447.78 142.94 447.868C142.852 447.956 142.72 448 142.544 448H141.422ZM144.942 442.61H150.882L147.912 434.8L144.942 442.61ZM156.579 448C156.432 448 156.307 447.949 156.205 447.846C156.102 447.743 156.051 447.619 156.051 447.472V446.658C156.051 446.35 156.205 446.189 156.513 446.174C156.967 446.159 157.349 445.947 157.657 445.536C157.965 445.111 158.199 444.443 158.361 443.534C158.522 442.61 158.603 441.393 158.603 439.882V437.066C158.603 436.919 158.647 436.802 158.735 436.714C158.837 436.611 158.962 436.56 159.109 436.56H166.105C166.251 436.56 166.369 436.611 166.457 436.714C166.559 436.802 166.611 436.919 166.611 437.066V447.494C166.611 447.641 166.559 447.765 166.457 447.868C166.369 447.956 166.251 448 166.105 448H165.049C164.902 448 164.785 447.956 164.697 447.868C164.609 447.765 164.565 447.641 164.565 447.494V438.32H160.605V440.124C160.605 441.532 160.524 442.742 160.363 443.754C160.201 444.751 159.952 445.565 159.615 446.196C159.292 446.812 158.874 447.267 158.361 447.56C157.862 447.853 157.268 448 156.579 448ZM174.664 448.22C173.154 448.22 171.951 447.758 171.056 446.834C170.162 445.895 169.67 444.619 169.582 443.006C169.568 442.815 169.56 442.573 169.56 442.28C169.56 441.972 169.568 441.723 169.582 441.532C169.641 440.491 169.883 439.581 170.308 438.804C170.734 438.012 171.313 437.403 172.046 436.978C172.794 436.553 173.667 436.34 174.664 436.34C175.779 436.34 176.71 436.575 177.458 437.044C178.221 437.513 178.8 438.181 179.196 439.046C179.592 439.911 179.79 440.923 179.79 442.082V442.456C179.79 442.617 179.739 442.742 179.636 442.83C179.548 442.918 179.431 442.962 179.284 442.962H171.672C171.672 442.977 171.672 443.006 171.672 443.05C171.672 443.094 171.672 443.131 171.672 443.16C171.702 443.761 171.834 444.326 172.068 444.854C172.303 445.367 172.64 445.785 173.08 446.108C173.52 446.431 174.048 446.592 174.664 446.592C175.192 446.592 175.632 446.511 175.984 446.35C176.336 446.189 176.622 446.013 176.842 445.822C177.062 445.617 177.209 445.463 177.282 445.36C177.414 445.169 177.517 445.059 177.59 445.03C177.664 444.986 177.781 444.964 177.942 444.964H178.998C179.145 444.964 179.262 445.008 179.35 445.096C179.453 445.169 179.497 445.279 179.482 445.426C179.468 445.646 179.35 445.917 179.13 446.24C178.91 446.548 178.595 446.856 178.184 447.164C177.774 447.472 177.275 447.729 176.688 447.934C176.102 448.125 175.427 448.22 174.664 448.22ZM171.672 441.444H177.7V441.378C177.7 440.718 177.576 440.131 177.326 439.618C177.092 439.105 176.747 438.701 176.292 438.408C175.838 438.1 175.295 437.946 174.664 437.946C174.034 437.946 173.491 438.1 173.036 438.408C172.596 438.701 172.259 439.105 172.024 439.618C171.79 440.131 171.672 440.718 171.672 441.378V441.444ZM183.147 448C183 448 182.876 447.956 182.773 447.868C182.685 447.765 182.641 447.641 182.641 447.494V437.066C182.641 436.919 182.685 436.802 182.773 436.714C182.876 436.611 183 436.56 183.147 436.56H184.181C184.328 436.56 184.445 436.611 184.533 436.714C184.636 436.802 184.687 436.919 184.687 437.066V441.29H186.689L189.659 436.89C189.732 436.787 189.813 436.707 189.901 436.648C189.989 436.589 190.106 436.56 190.253 436.56H191.397C191.529 436.56 191.639 436.589 191.727 436.648C191.815 436.707 191.859 436.795 191.859 436.912C191.859 436.941 191.844 436.985 191.815 437.044C191.8 437.088 191.778 437.132 191.749 437.176L188.449 442.038L192.189 447.362C192.262 447.45 192.299 447.545 192.299 447.648C192.299 447.765 192.255 447.853 192.167 447.912C192.094 447.971 191.991 448 191.859 448H190.517C190.385 448 190.275 447.971 190.187 447.912C190.099 447.853 190.018 447.773 189.945 447.67L186.711 443.072H184.687V447.494C184.687 447.641 184.636 447.765 184.533 447.868C184.445 447.956 184.328 448 184.181 448H183.147ZM199.276 448.22C198.234 448.22 197.332 448.022 196.57 447.626C195.822 447.215 195.242 446.636 194.832 445.888C194.421 445.125 194.201 444.216 194.172 443.16C194.157 442.94 194.15 442.647 194.15 442.28C194.15 441.913 194.157 441.62 194.172 441.4C194.201 440.344 194.421 439.442 194.832 438.694C195.242 437.931 195.822 437.352 196.57 436.956C197.332 436.545 198.234 436.34 199.276 436.34C200.126 436.34 200.852 436.457 201.454 436.692C202.07 436.927 202.576 437.227 202.972 437.594C203.368 437.961 203.661 438.357 203.852 438.782C204.057 439.207 204.167 439.611 204.182 439.992C204.196 440.139 204.152 440.256 204.05 440.344C203.947 440.432 203.822 440.476 203.676 440.476H202.62C202.473 440.476 202.363 440.447 202.29 440.388C202.216 440.315 202.143 440.197 202.07 440.036C201.806 439.317 201.446 438.811 200.992 438.518C200.537 438.225 199.972 438.078 199.298 438.078C198.418 438.078 197.699 438.349 197.142 438.892C196.599 439.435 196.306 440.307 196.262 441.51C196.247 442.038 196.247 442.551 196.262 443.05C196.306 444.267 196.599 445.147 197.142 445.69C197.699 446.218 198.418 446.482 199.298 446.482C199.972 446.482 200.537 446.335 200.992 446.042C201.446 445.749 201.806 445.243 202.07 444.524C202.143 444.363 202.216 444.253 202.29 444.194C202.363 444.121 202.473 444.084 202.62 444.084H203.676C203.822 444.084 203.947 444.128 204.05 444.216C204.152 444.304 204.196 444.421 204.182 444.568C204.167 444.876 204.101 445.191 203.984 445.514C203.866 445.837 203.676 446.167 203.412 446.504C203.162 446.827 202.847 447.12 202.466 447.384C202.084 447.633 201.622 447.839 201.08 448C200.552 448.147 199.95 448.22 199.276 448.22ZM210.204 448.22C209.471 448.22 208.804 448.073 208.202 447.78C207.601 447.487 207.117 447.091 206.75 446.592C206.384 446.093 206.2 445.529 206.2 444.898C206.2 443.886 206.611 443.079 207.432 442.478C208.254 441.877 209.324 441.481 210.644 441.29L213.922 440.828V440.19C213.922 439.486 213.717 438.936 213.306 438.54C212.91 438.144 212.258 437.946 211.348 437.946C210.688 437.946 210.153 438.078 209.742 438.342C209.346 438.606 209.068 438.943 208.906 439.354C208.818 439.574 208.664 439.684 208.444 439.684H207.454C207.293 439.684 207.168 439.64 207.08 439.552C207.007 439.449 206.97 439.332 206.97 439.2C206.97 438.98 207.051 438.709 207.212 438.386C207.388 438.063 207.652 437.748 208.004 437.44C208.356 437.132 208.804 436.875 209.346 436.67C209.904 436.45 210.578 436.34 211.37 436.34C212.25 436.34 212.991 436.457 213.592 436.692C214.194 436.912 214.663 437.213 215 437.594C215.352 437.975 215.602 438.408 215.748 438.892C215.91 439.376 215.99 439.867 215.99 440.366V447.494C215.99 447.641 215.939 447.765 215.836 447.868C215.748 447.956 215.631 448 215.484 448H214.472C214.311 448 214.186 447.956 214.098 447.868C214.01 447.765 213.966 447.641 213.966 447.494V446.548C213.776 446.812 213.519 447.076 213.196 447.34C212.874 447.589 212.47 447.802 211.986 447.978C211.502 448.139 210.908 448.22 210.204 448.22ZM210.666 446.57C211.268 446.57 211.818 446.445 212.316 446.196C212.815 445.932 213.204 445.529 213.482 444.986C213.776 444.443 213.922 443.761 213.922 442.94V442.324L211.37 442.698C210.329 442.845 209.544 443.094 209.016 443.446C208.488 443.783 208.224 444.216 208.224 444.744C208.224 445.155 208.342 445.499 208.576 445.778C208.826 446.042 209.134 446.24 209.5 446.372C209.882 446.504 210.27 446.57 210.666 446.57ZM219.879 448C219.732 448 219.608 447.956 219.505 447.868C219.417 447.765 219.373 447.641 219.373 447.494V437.066C219.373 436.919 219.417 436.802 219.505 436.714C219.608 436.611 219.732 436.56 219.879 436.56H220.935C221.082 436.56 221.199 436.611 221.287 436.714C221.375 436.802 221.419 436.919 221.419 437.066V441.29H227.425V437.066C227.425 436.919 227.469 436.802 227.557 436.714C227.66 436.611 227.784 436.56 227.931 436.56H228.965C229.112 436.56 229.229 436.611 229.317 436.714C229.42 436.802 229.471 436.919 229.471 437.066V447.494C229.471 447.641 229.42 447.765 229.317 447.868C229.229 447.956 229.112 448 228.965 448H227.931C227.784 448 227.66 447.956 227.557 447.868C227.469 447.765 227.425 447.641 227.425 447.494V443.05H221.419V447.494C221.419 447.641 221.375 447.765 221.287 447.868C221.199 447.956 221.082 448 220.935 448H219.879ZM232.339 450.42C232.193 450.42 232.068 450.369 231.965 450.266C231.877 450.178 231.833 450.061 231.833 449.914V446.746C231.833 446.599 231.877 446.482 231.965 446.394C232.068 446.291 232.193 446.24 232.339 446.24H232.449C232.845 446.225 233.183 446.005 233.461 445.58C233.74 445.14 233.953 444.458 234.099 443.534C234.246 442.595 234.319 441.378 234.319 439.882V437.066C234.319 436.919 234.363 436.802 234.451 436.714C234.554 436.611 234.679 436.56 234.825 436.56H241.843C241.99 436.56 242.107 436.611 242.195 436.714C242.298 436.802 242.349 436.919 242.349 437.066V446.196H243.383C243.545 446.196 243.669 446.247 243.757 446.35C243.845 446.438 243.889 446.555 243.889 446.702V449.914C243.889 450.061 243.845 450.178 243.757 450.266C243.669 450.369 243.545 450.42 243.383 450.42H242.349C242.203 450.42 242.078 450.369 241.975 450.266C241.887 450.178 241.843 450.061 241.843 449.914V448H233.879V449.914C233.879 450.061 233.828 450.178 233.725 450.266C233.637 450.369 233.52 450.42 233.373 450.42H232.339ZM235.067 446.24L240.303 446.196V438.32H236.321V440.124C236.321 441.679 236.211 442.955 235.991 443.952C235.771 444.935 235.463 445.697 235.067 446.24ZM246.939 452.18C246.792 452.18 246.667 452.129 246.565 452.026C246.477 451.938 246.433 451.821 246.433 451.674V437.066C246.433 436.919 246.477 436.802 246.565 436.714C246.667 436.611 246.792 436.56 246.939 436.56H247.951C248.097 436.56 248.215 436.611 248.303 436.714C248.405 436.802 248.457 436.919 248.457 437.066V438.034C248.809 437.55 249.278 437.147 249.865 436.824C250.451 436.501 251.185 436.34 252.065 436.34C252.886 436.34 253.583 436.479 254.155 436.758C254.741 437.037 255.218 437.418 255.585 437.902C255.966 438.386 256.252 438.936 256.443 439.552C256.633 440.168 256.736 440.828 256.751 441.532C256.765 441.767 256.773 442.016 256.773 442.28C256.773 442.544 256.765 442.793 256.751 443.028C256.736 443.717 256.633 444.377 256.443 445.008C256.252 445.624 255.966 446.174 255.585 446.658C255.218 447.127 254.741 447.509 254.155 447.802C253.583 448.081 252.886 448.22 252.065 448.22C251.214 448.22 250.495 448.066 249.909 447.758C249.337 447.435 248.867 447.039 248.501 446.57V451.674C248.501 451.821 248.457 451.938 248.369 452.026C248.281 452.129 248.156 452.18 247.995 452.18H246.939ZM251.603 446.438C252.365 446.438 252.959 446.277 253.385 445.954C253.825 445.617 254.14 445.184 254.331 444.656C254.521 444.113 254.631 443.534 254.661 442.918C254.675 442.493 254.675 442.067 254.661 441.642C254.631 441.026 254.521 440.454 254.331 439.926C254.14 439.383 253.825 438.951 253.385 438.628C252.959 438.291 252.365 438.122 251.603 438.122C250.884 438.122 250.297 438.291 249.843 438.628C249.403 438.965 249.073 439.398 248.853 439.926C248.647 440.439 248.53 440.967 248.501 441.51C248.486 441.745 248.479 442.023 248.479 442.346C248.479 442.669 248.486 442.955 248.501 443.204C248.515 443.717 248.633 444.223 248.853 444.722C249.087 445.221 249.432 445.631 249.887 445.954C250.341 446.277 250.913 446.438 251.603 446.438Z" fill="#E74214"/>
<line y1="408" x2="319" y2="408" stroke="#E74214" stroke-width="2"/>
</svg>
