<svg width="190" height="72" viewBox="0 0 190 72" fill="none" xmlns="http://www.w3.org/2000/svg">
<g clip-path="url(#clip0_1_486)">
<path fill-rule="evenodd" clip-rule="evenodd" d="M62.641 52.5683H62.9555V18.8389H62.641V52.5683ZM39.0985 18.9902L37.3248 22.06L39.6394 26.3565L31.5879 40.3298L33.359 43.3248H36.9063L39.3933 39.1986L55.4424 39.2151L57.2947 35.9579L55.5648 32.9989H50.8856L42.6432 18.9902H39.0985ZM39.4853 22.0638L40.2297 20.8085H41.5842L48.6776 32.9951L45.8462 32.9977L39.4859 22.0638H39.4853ZM33.7642 40.3152L40.7478 28.1755L42.1011 30.5321L35.8315 41.3735L34.418 41.3843L33.7642 40.3152ZM41.881 34.9034H54.5134L55.2262 36.0066L54.5553 37.3081H40.4517L41.881 34.9034ZM76.723 27.1628C77.659 27.1628 78.5353 27.3363 79.3496 27.6808C80.1644 28.0285 80.9368 28.5498 81.6641 29.2521L85.6001 29.325L85.6192 30.8399V40.065H86.4904V43.3406H81.6647V41.6547C81.0015 42.3349 80.2494 42.8523 79.4073 43.2095C78.5658 43.5642 77.6698 43.7428 76.723 43.7428C74.3863 43.7428 72.468 42.9638 70.9715 41.4052C69.4743 39.8453 68.7248 37.8617 68.7248 35.4531C68.7248 33.1091 69.4845 31.1426 71.0057 29.5504C72.5257 27.9589 74.43 27.1628 76.723 27.1628ZM122.26 27.2305C124.79 27.2305 126.821 28.0507 128.357 29.6917C129.891 31.3333 130.659 33.5233 130.659 36.2625V36.6558H117.585C117.719 37.861 118.201 38.787 119.031 39.4323C119.861 40.079 120.979 40.4007 122.385 40.4007C123.261 40.4007 124.046 40.255 124.744 39.9624C125.442 39.6705 125.979 39.2594 126.357 38.7293H130.229C129.764 40.3241 128.843 41.5584 127.463 42.4312C126.081 43.3064 124.358 43.7434 122.293 43.7434C119.676 43.7434 117.566 42.9834 115.965 41.4647C114.364 39.946 113.564 37.9535 113.564 35.4873C113.564 33.0749 114.378 31.0977 116.006 29.5498C117.636 28.0045 119.72 27.2305 122.26 27.2305H122.26ZM149.256 27.1628C150.205 27.1628 151.051 27.2894 151.798 27.5415C152.072 27.634 152.539 27.824 153.021 28.0266L153.284 28.1381C153.853 28.3807 154.398 28.6207 154.622 28.7195L154.702 28.755L154.73 28.7676H156.662V32.5113H153.465C153.189 31.6867 152.73 31.0584 152.091 30.6233C151.452 30.1882 150.666 29.971 149.742 29.971C148.992 29.971 148.393 30.1255 147.945 30.4327C147.5 30.7417 147.277 31.1369 147.277 31.6189C147.277 32.5322 148.29 33.175 150.321 33.548C150.419 33.5588 150.496 33.5702 150.553 33.581L152.357 33.8976C154.237 34.2396 155.627 34.8096 156.524 35.6064C157.42 36.4018 157.869 37.462 157.869 38.787C157.869 40.2246 157.313 41.4083 156.205 42.3419C155.095 43.276 153.645 43.7434 151.855 43.7434C150.951 43.7434 150.075 43.6136 149.231 43.3539C148.386 43.0962 147.545 42.7016 146.705 42.1715L146.673 43.3413H143.724V37.8598H146.804C147.2 38.8193 147.807 39.5489 148.622 40.0511C149.437 40.5514 150.436 40.8022 151.615 40.8022C152.321 40.8022 152.89 40.6312 153.327 40.2905C153.761 39.9498 153.98 39.5052 153.98 38.9561C153.98 38.4937 153.814 38.1397 153.483 37.8921C153.153 37.6463 152.401 37.4126 151.23 37.1916L148.633 36.7597C146.896 36.4512 145.61 35.9078 144.775 35.1301C143.939 34.353 143.523 33.3137 143.523 32.0116C143.523 30.5448 144.044 29.3693 145.086 28.4877C146.131 27.6055 147.521 27.1628 149.256 27.1628ZM92.7112 18.9402V29.7018C93.6415 28.8227 94.5597 28.1818 95.4633 27.7733C96.3663 27.368 97.3238 27.1634 98.3308 27.1634C99.9941 27.1634 101.227 27.6099 102.031 28.5016C102.834 29.3965 103.237 30.7785 103.237 32.6531V40.0663H104.108V43.3413H99.282V33.5335C99.282 32.681 99.0645 32.0185 98.632 31.548C98.2008 31.0774 97.5908 30.8399 96.8032 30.8399C96.1044 30.8399 95.4164 31.0375 94.7404 31.4302C94.0644 31.8241 93.3891 32.4264 92.7112 33.2345V40.0663H93.5825V43.3413H88.7562V22.2158H87.8842V18.9402H92.7112ZM111.192 18.9402V40.0663H112.13V43.3413H106.233V40.0663H107.304V22.2158H106.266V18.9402H111.192ZM141.731 27.1039C141.803 27.1039 141.917 27.1077 142.078 27.1197C142.209 27.1292 142.32 27.1343 142.391 27.1343H142.739V30.3624H141.607C140.171 30.3624 139.042 30.7392 138.255 31.4834C137.46 32.2326 137.075 33.263 137.075 34.6355V40.3564H138.086V43.3115H132.575V40.3564H133.588V30.4922H132.575V27.5377H137.075V29.1248C137.523 28.5738 138.03 28.1368 138.591 27.8208C139.439 27.3452 140.496 27.1032 141.73 27.1032L141.731 27.1039ZM77.2639 30.7056C75.9335 30.7056 74.8479 31.149 74.0083 32.0344C73.1681 32.9191 72.7477 34.0642 72.7477 35.4696C72.7477 36.8635 73.1681 38.0004 74.0083 38.8794C74.8485 39.7598 75.9335 40.1999 77.2639 40.1999C78.5601 40.1999 79.6394 39.7541 80.5024 38.8636C81.3648 37.9738 81.7985 36.842 81.7985 35.4689C81.7985 34.0971 81.3623 32.9616 80.4948 32.0584C79.626 31.1566 78.5493 30.7056 77.2639 30.7056ZM122.252 30.572C121.056 30.572 120.048 30.8665 119.222 31.4536C118.398 32.042 117.852 32.8621 117.585 33.9147H126.77C126.45 32.8184 125.904 31.9869 125.134 31.42C124.365 30.8557 123.403 30.5714 122.252 30.5714V30.572ZM74.0996 48.9463C75.1776 48.9463 75.9538 49.7462 75.9538 50.7855C75.9538 51.8349 75.1776 52.6196 74.0996 52.6196C73.0165 52.6196 72.2353 51.8298 72.2353 50.7855C72.2353 49.7563 73.0165 48.9463 74.0996 48.9463ZM133.893 48.9463C134.971 48.9463 135.747 49.7462 135.747 50.7855C135.747 51.8349 134.971 52.6196 133.893 52.6196C132.81 52.6196 132.029 51.8298 132.029 50.7855C132.029 49.7563 132.81 48.9463 133.893 48.9463ZM70.1807 48.9463C70.7166 48.9463 71.0387 49.0793 71.274 49.2724L71.0901 49.5524C70.8396 49.3636 70.6094 49.2724 70.1909 49.2724C69.721 49.2724 69.4046 49.5017 69.4046 49.8735C69.4046 50.2452 69.6899 50.4036 70.2112 50.5258C70.9924 50.7088 71.3608 51.009 71.3608 51.5955C71.3608 52.2573 70.8193 52.619 70.17 52.619C69.6696 52.619 69.2251 52.4923 68.9036 52.258L69.0977 51.947C69.3634 52.1503 69.7464 52.2884 70.1554 52.2884C70.6557 52.2884 70.9975 52.0433 70.9975 51.631C70.9975 51.2339 70.7527 51.0147 70.1243 50.8773C69.4141 50.719 69.0412 50.439 69.0412 49.8836C69.0412 49.344 69.5263 48.9463 70.1807 48.9463ZM155.98 48.9463C156.517 48.9463 156.838 49.0793 157.073 49.2724L156.889 49.5524C156.639 49.3636 156.409 49.2724 155.99 49.2724C155.521 49.2724 155.204 49.5017 155.204 49.8735C155.204 50.2452 155.49 50.4036 156.011 50.5258C156.792 50.7088 157.16 51.009 157.16 51.5955C157.16 52.2573 156.618 52.619 155.97 52.619C155.469 52.619 155.025 52.4923 154.703 52.258L154.897 51.947C155.162 52.1503 155.546 52.2884 155.954 52.2884C156.455 52.2884 156.798 52.0433 156.798 51.631C156.798 51.2339 156.552 51.0147 155.924 50.8773C155.214 50.719 154.841 50.439 154.841 49.8836C154.841 49.344 155.326 48.9463 155.98 48.9463ZM152.832 48.9463C153.491 48.9463 153.864 49.1806 153.996 49.2724L153.818 49.5625C153.72 49.4808 153.409 49.2775 152.878 49.2775C151.943 49.2775 151.315 49.8836 151.315 50.7804C151.315 51.6671 151.923 52.2877 152.878 52.2877C153.409 52.2877 153.705 52.1041 153.828 52.023L153.996 52.3086C153.864 52.4005 153.491 52.619 152.832 52.619C151.703 52.619 150.947 51.845 150.947 50.7905C150.947 49.7202 151.724 48.9463 152.832 48.9463ZM99.5845 48.9463C100.121 48.9463 100.442 49.0793 100.678 49.2724L100.494 49.5524C100.243 49.3636 100.013 49.2724 99.5946 49.2724C99.1254 49.2724 98.8083 49.5017 98.8083 49.8735C98.8083 50.2452 99.0937 50.4036 99.6149 50.5258C100.397 50.7088 100.765 51.009 100.765 51.5955C100.765 52.2573 100.223 52.619 99.5743 52.619C99.0734 52.619 98.6295 52.4923 98.3074 52.258L98.5014 51.947C98.7671 52.1503 99.1501 52.2884 99.5591 52.2884C100.06 52.2884 100.402 52.0433 100.402 51.631C100.402 51.2339 100.156 51.0147 99.528 50.8773C98.8178 50.719 98.445 50.439 98.445 49.8836C98.445 49.344 98.9307 48.9463 99.5845 48.9463ZM138.544 48.9463C139.203 48.9463 139.576 49.1806 139.709 49.2724L139.54 49.5625C139.437 49.4764 139.116 49.2775 138.579 49.2775C137.716 49.2775 137.011 49.9089 137.011 50.7905C137.011 51.6715 137.716 52.2877 138.549 52.2877C138.978 52.2877 139.31 52.1813 139.519 52.0787V50.9432H139.887V52.2573C139.657 52.3903 139.238 52.6196 138.533 52.6196C137.466 52.6196 136.643 51.845 136.643 50.7905C136.643 49.736 137.466 48.9463 138.544 48.9463ZM80.5645 48.9919V51.1471C80.5645 51.8197 80.9888 52.2725 81.6933 52.2725C82.3832 52.2725 82.7922 51.8197 82.7922 51.1471V48.9919H83.1492V51.1218C83.1492 52.0844 82.5671 52.619 81.6838 52.619C80.7789 52.619 80.1872 52.0794 80.1872 51.1218V48.9919H80.5645ZM91.2293 48.9463C92.3073 48.9463 93.0834 49.7462 93.0834 50.7855C93.0834 51.8349 92.3073 52.6196 91.2293 52.6196C90.1462 52.6196 89.3649 51.8298 89.3649 50.7855C89.3649 49.7563 90.1462 48.9463 91.2293 48.9463ZM115.87 48.9463C116.948 48.9463 117.724 49.7462 117.724 50.7855C117.724 51.8349 116.948 52.6196 115.87 52.6196C114.787 52.6196 114.006 51.8298 114.006 50.7855C114.006 49.7563 114.787 48.9463 115.87 48.9463ZM143.782 48.9463C144.318 48.9463 144.64 49.0793 144.875 49.2724L144.691 49.5524C144.441 49.3636 144.211 49.2724 143.792 49.2724C143.323 49.2724 143.006 49.5017 143.006 49.8735C143.006 50.2452 143.291 50.4036 143.813 50.5258C144.594 50.7088 144.962 51.009 144.962 51.5955C144.962 52.2573 144.42 52.619 143.772 52.619C143.271 52.619 142.827 52.4923 142.505 52.258L142.699 51.947C142.964 52.1503 143.348 52.2884 143.756 52.2884C144.257 52.2884 144.599 52.0433 144.599 51.631C144.599 51.2339 144.354 51.0147 143.726 50.8773C143.016 50.719 142.643 50.439 142.643 49.8836C142.643 49.344 143.128 48.9463 143.782 48.9463ZM119.11 48.9564L121.517 51.9058V48.9925H121.88V52.6088H121.655L119.243 49.6702V52.5734H118.881V48.957H119.11V48.9564ZM94.4646 48.9564L96.8704 51.9058V48.9925H97.2332V52.6088H97.0087L94.5971 49.6702V52.5734H94.2344V48.957H94.4646V48.9564ZM104.725 48.9919C105.63 48.9919 106.008 49.3845 106.008 49.9501C106.008 50.3067 105.782 50.5974 105.481 50.7399C105.869 50.8665 106.115 51.1876 106.115 51.5543C106.115 52.1915 105.665 52.574 104.853 52.574H103.56V48.9919H104.725ZM110.812 48.9919L111.916 50.8057L113.029 48.9919H113.448L112.084 51.1623V52.5734H111.722V51.1522L110.373 48.9925H110.812V48.9919ZM77.4681 48.9919V52.2472H79.4244V52.5734H77.1054V48.9919H77.4681ZM88.2096 48.9919V52.5734H87.8468V48.9919H88.2096ZM109.625 48.9919V49.318H107.669V50.5917H109.38V50.9178H107.669V52.2478H109.625V52.5734H107.306V48.9919H109.625ZM129.566 48.9919V52.2472H131.522V52.5734H129.203V48.9919H129.566ZM86.8956 48.9919V49.318H85.6692V52.5734H85.3015V49.318H84.0503V48.9919H86.8956ZM141.427 48.9919V52.5734H141.064V48.9919H141.427ZM148.467 48.9919V49.318H147.242V52.5734H146.874V49.318H145.622V48.9919H148.467ZM149.786 48.9919V52.5734H149.424V48.9919H149.786ZM124.506 48.9919C125.63 48.9919 126.381 49.7056 126.381 50.7804C126.381 51.8552 125.63 52.5727 124.506 52.5727H123.291V48.9919H124.506ZM74.0996 49.2769C73.2467 49.2769 72.6031 49.94 72.6031 50.7855C72.6031 51.6563 73.2467 52.2884 74.0996 52.2884C74.943 52.2884 75.586 51.6614 75.586 50.7855C75.586 49.9343 74.943 49.2775 74.0996 49.2775V49.2769ZM91.2293 49.2769C90.3764 49.2769 89.7327 49.94 89.7327 50.7855C89.7327 51.6563 90.3764 52.2884 91.2293 52.2884C92.072 52.2884 92.7156 51.6614 92.7156 50.7855C92.7156 49.9343 92.072 49.2775 91.2293 49.2775V49.2769ZM115.87 49.2769C115.017 49.2769 114.374 49.94 114.374 50.7855C114.374 51.6563 115.017 52.2884 115.87 52.2884C116.713 52.2884 117.356 51.6614 117.356 50.7855C117.356 49.9343 116.713 49.2775 115.87 49.2775V49.2769ZM133.893 49.2769C133.04 49.2769 132.397 49.94 132.397 50.7855C132.397 51.6563 133.04 52.2884 133.893 52.2884C134.737 52.2884 135.38 51.6614 135.38 50.7855C135.38 49.9343 134.736 49.2775 133.893 49.2775V49.2769ZM124.521 49.318H123.653V52.2472H124.522C125.421 52.2472 126.008 51.6614 126.008 50.7855C126.008 49.9089 125.421 49.318 124.521 49.318ZM104.878 50.9178H103.923V52.2472H104.838C105.394 52.2472 105.742 51.9825 105.742 51.5341C105.742 51.2187 105.486 50.9178 104.878 50.9178ZM104.715 49.318H103.923V50.5917H104.878C105.343 50.5917 105.63 50.3573 105.63 49.9906C105.63 49.5828 105.349 49.318 104.715 49.318Z" fill="#E74214"/>
</g>
<defs>
<clipPath id="clip0_1_486">
<rect width="126.825" height="34.2" fill="white" transform="translate(31.5879 18.5254)"/>
</clipPath>
</defs>
</svg>
