<svg width="132" height="27" viewBox="0 0 132 27" fill="none" xmlns="http://www.w3.org/2000/svg">
<path d="M1.32715 7.20312H3.02344V11.2021C3.02344 11.8643 3.12012 12.3828 3.31348 12.7578C3.50684 13.1328 3.7998 13.3965 4.19238 13.5488C4.58496 13.7012 5.07422 13.7773 5.66016 13.7773C6.01172 13.7773 6.35156 13.7627 6.67969 13.7334C7.01367 13.7041 7.33887 13.6631 7.65527 13.6104C7.97168 13.5576 8.28223 13.4932 8.58691 13.417C8.89746 13.3408 9.20215 13.2588 9.50098 13.1709V14.5596C9.21387 14.6475 8.92676 14.7295 8.63965 14.8057C8.3584 14.8818 8.06543 14.9463 7.76074 14.999C7.46191 15.0518 7.13965 15.0928 6.79395 15.1221C6.4541 15.1514 6.07617 15.166 5.66016 15.166C4.75781 15.166 3.98145 15.0371 3.33105 14.7793C2.68652 14.5156 2.19141 14.0938 1.8457 13.5137C1.5 12.9336 1.32715 12.1631 1.32715 11.2021V7.20312ZM9.07031 7.20312H10.7666V20H9.07031V7.20312ZM15.6793 17.4248L20.0651 10.4902H21.6998V20H20.0651V13.0654L15.6793 20H14.0621V10.4902H15.6793V17.4248ZM28.5462 10.4902V20H26.9114V10.4902H28.5462ZM31.7366 10.4902V11.8086H23.7825V10.4902H31.7366ZM39.163 18.374V13.4785C39.163 13.1035 39.0868 12.7783 38.9345 12.5029C38.788 12.2217 38.5654 12.0049 38.2665 11.8525C37.9677 11.7002 37.5986 11.624 37.1591 11.624C36.7489 11.624 36.3886 11.6943 36.078 11.835C35.7734 11.9756 35.5331 12.1602 35.3573 12.3887C35.1874 12.6172 35.1025 12.8633 35.1025 13.127H33.4765C33.4765 12.7871 33.5644 12.4502 33.7402 12.1162C33.9159 11.7822 34.1679 11.4805 34.496 11.2109C34.83 10.9355 35.2284 10.7188 35.6913 10.5605C36.1601 10.3965 36.6816 10.3145 37.2558 10.3145C37.9472 10.3145 38.5566 10.4316 39.0839 10.666C39.6171 10.9004 40.0331 11.2549 40.332 11.7295C40.6366 12.1982 40.789 12.7871 40.789 13.4961V17.9258C40.789 18.2422 40.8154 18.5791 40.8681 18.9365C40.9267 19.2939 41.0116 19.6016 41.123 19.8594V20H39.4267C39.3447 19.8125 39.2802 19.5635 39.2333 19.2529C39.1864 18.9365 39.163 18.6436 39.163 18.374ZM39.4443 14.2344L39.4618 15.377H37.8183C37.3554 15.377 36.9423 15.415 36.579 15.4912C36.2157 15.5615 35.9111 15.6699 35.665 15.8164C35.4189 15.9629 35.2314 16.1475 35.1025 16.3701C34.9736 16.5869 34.9091 16.8418 34.9091 17.1348C34.9091 17.4336 34.9765 17.7061 35.1113 17.9521C35.246 18.1982 35.4482 18.3945 35.7177 18.541C35.9931 18.6816 36.33 18.752 36.7284 18.752C37.2265 18.752 37.6659 18.6465 38.0468 18.4355C38.4277 18.2246 38.7294 17.9668 38.9521 17.6621C39.1806 17.3574 39.3036 17.0615 39.3212 16.7744L40.0155 17.5566C39.9745 17.8027 39.8632 18.0752 39.6816 18.374C39.4999 18.6729 39.2568 18.96 38.9521 19.2354C38.6532 19.5049 38.2958 19.7305 37.8798 19.9121C37.4697 20.0879 37.0068 20.1758 36.4911 20.1758C35.8466 20.1758 35.2812 20.0498 34.7948 19.7979C34.3144 19.5459 33.9394 19.209 33.6698 18.7871C33.4062 18.3594 33.2743 17.8818 33.2743 17.3545C33.2743 16.8447 33.3739 16.3965 33.5732 16.0098C33.7724 15.6172 34.0595 15.292 34.4345 15.0342C34.8095 14.7705 35.2607 14.5713 35.788 14.4365C36.3154 14.3018 36.9042 14.2344 37.5546 14.2344H39.4443ZM47.442 10.4902V20H45.8072V10.4902H47.442ZM50.6324 10.4902V11.8086H42.6783V10.4902H50.6324ZM53.9279 13.7598H56.7844C57.552 13.7598 58.1994 13.8945 58.7268 14.1641C59.2541 14.4277 59.6525 14.7939 59.9221 15.2627C60.1975 15.7256 60.3352 16.2529 60.3352 16.8447C60.3352 17.2842 60.259 17.6973 60.1066 18.084C59.9543 18.4648 59.7258 18.7988 59.4211 19.0859C59.1223 19.373 58.7502 19.5986 58.3049 19.7627C57.8654 19.9209 57.3586 20 56.7844 20H52.7414V10.4902H54.3674V18.6641H56.7844C57.2531 18.6641 57.6281 18.5791 57.9094 18.4092C58.1906 18.2393 58.3928 18.0195 58.5158 17.75C58.6389 17.4805 58.7004 17.1992 58.7004 16.9062C58.7004 16.6191 58.6389 16.3379 58.5158 16.0625C58.3928 15.7871 58.1906 15.5586 57.9094 15.377C57.6281 15.1895 57.2531 15.0957 56.7844 15.0957H53.9279V13.7598Z" fill="white"/>
<path d="M109.707 14.7071C110.098 14.3166 110.098 13.6834 109.707 13.2929L103.343 6.92893C102.953 6.53841 102.319 6.53841 101.929 6.92893C101.538 7.31946 101.538 7.95262 101.929 8.34315L107.586 14L101.929 19.6569C101.538 20.0474 101.538 20.6805 101.929 21.0711C102.319 21.4616 102.953 21.4616 103.343 21.0711L109.707 14.7071ZM80 15H109V13H80V15Z" fill="white"/>
</svg>
