<svg width="221" height="37" viewBox="0 0 221 37" fill="none" xmlns="http://www.w3.org/2000/svg">
<path d="M8.3 0.999998C11.1667 0.999998 13.2333 1.66666 14.5 3C15.8 4.33333 16.45 6.35 16.45 9.05V10.3C16.45 12.1 16.1667 13.5833 15.6 14.75C15.0333 15.9167 14.1333 16.7833 12.9 17.35C14.4 17.9167 15.45 18.85 16.05 20.15C16.6833 21.4167 17 22.9833 17 24.85V27.7C17 30.4 16.3 32.4667 14.9 33.9C13.5 35.3 11.4167 36 8.65 36H1.41561e-07V0.999998H8.3ZM5.5 20.25V31H8.65C9.58333 31 10.2833 30.75 10.75 30.25C11.25 29.75 11.5 28.85 11.5 27.55V24.5C11.5 22.8667 11.2167 21.75 10.65 21.15C10.1167 20.55 9.21667 20.25 7.95 20.25H5.5ZM5.5 6V15.25H7.65C8.68333 15.25 9.48333 14.9833 10.05 14.45C10.65 13.9167 10.95 12.95 10.95 11.55V9.6C10.95 8.33333 10.7167 7.41667 10.25 6.85C9.81667 6.28333 9.11667 6 8.15 6H5.5ZM38.6125 36H33.0625L32.1125 29.65H25.3625L24.4125 36H19.3625L24.9625 0.999998H33.0125L38.6125 36ZM26.0625 24.9H31.3625L28.7125 7.2L26.0625 24.9ZM57.5238 15.15L64.0238 0.999998H69.5238L62.7738 15.2L69.5238 36H63.8738L58.8738 20.5L57.5238 23.15V36H52.0738V23.15L50.7238 20.45L45.7238 36H40.0738L46.8738 15.35L40.0738 0.999998H45.5738L52.0738 15.15V0.999998H57.5238V15.15ZM77.8496 36H72.3496V0.999998H77.8496V16H84.0996V0.999998H89.6996V36H84.0996V21H77.8496V36ZM99.2375 27.95C99.2375 29.2167 99.4875 30.1167 99.9875 30.65C100.521 31.15 101.221 31.4 102.088 31.4C102.954 31.4 103.638 31.15 104.138 30.65C104.671 30.1167 104.938 29.2167 104.938 27.95V9.05C104.938 7.78333 104.671 6.9 104.138 6.4C103.638 5.86667 102.954 5.6 102.088 5.6C101.221 5.6 100.521 5.86667 99.9875 6.4C99.4875 6.9 99.2375 7.78333 99.2375 9.05V27.95ZM93.7375 9.4C93.7375 6.56667 94.4542 4.4 95.8875 2.9C97.3208 1.36667 99.3875 0.6 102.088 0.6C104.788 0.6 106.854 1.36667 108.288 2.9C109.721 4.4 110.438 6.56667 110.438 9.4V27.6C110.438 30.4333 109.721 32.6167 108.288 34.15C106.854 35.65 104.788 36.4 102.088 36.4C99.3875 36.4 97.3208 35.65 95.8875 34.15C94.4542 32.6167 93.7375 30.4333 93.7375 27.6V9.4Z" fill="#E74214"/>
<path d="M133.375 9.6C133.375 8.03333 133.109 6.98333 132.575 6.45C132.075 5.88333 131.392 5.6 130.525 5.6C129.659 5.6 128.959 5.86667 128.425 6.4C127.892 6.9 127.625 7.78333 127.625 9.05V11.9H122.575V9.3C122.575 6.46667 123.242 4.31667 124.575 2.85C125.942 1.35 127.975 0.6 130.675 0.6C133.375 0.6 135.409 1.36667 136.775 2.9C138.175 4.4 138.875 6.56667 138.875 9.4V10.3C138.875 14.0333 137.592 16.4333 135.025 17.5C136.425 18.1 137.409 19.0333 137.975 20.3C138.575 21.5333 138.875 23.05 138.875 24.85V27.6C138.875 30.4333 138.175 32.6167 136.775 34.15C135.409 35.65 133.375 36.4 130.675 36.4C127.975 36.4 125.925 35.65 124.525 34.15C123.159 32.6167 122.475 30.4333 122.475 27.6V23.75H127.675V27.95C127.675 29.2167 127.925 30.1167 128.425 30.65C128.959 31.15 129.659 31.4 130.525 31.4C131.392 31.4 132.075 31.1333 132.575 30.6C133.109 30.0667 133.375 29.0167 133.375 27.45V24.7C133.375 23.0667 133.092 21.9167 132.525 21.25C131.959 20.5833 131.042 20.25 129.775 20.25H128.425V15.25H130.075C131.109 15.25 131.909 14.9833 132.475 14.45C133.075 13.9167 133.375 12.95 133.375 11.55V9.6ZM148.6 36H143.1V0.999998H148.6V16H154.85V0.999998H160.45V36H154.85V21H148.6V36ZM182.738 36H177.188L176.238 29.65H169.488L168.538 36H163.488L169.088 0.999998H177.138L182.738 36ZM170.188 24.9H175.488L172.838 7.2L170.188 24.9ZM184.199 0.999998H201.199V6H195.449V36H189.949V6H184.199V0.999998ZM204.121 36V0.999998H209.621V14.15H212.221C214.988 14.15 217.038 14.8833 218.371 16.35C219.738 17.8167 220.421 19.9667 220.421 22.8V27.35C220.421 30.1833 219.738 32.3333 218.371 33.8C217.038 35.2667 214.988 36 212.221 36H204.121ZM212.221 31C213.088 31 213.754 30.7667 214.221 30.3C214.688 29.8333 214.921 28.9667 214.921 27.7V22.45C214.921 21.1833 214.688 20.3167 214.221 19.85C213.754 19.3833 213.088 19.15 212.221 19.15H209.621V31H212.221Z" fill="white"/>
</svg>
